<svg width="28" height="28" viewBox="0 0 28 28" fill="none" xmlns="http://www.w3.org/2000/svg">
<path d="M22.4834 6.21829C20.9318 5.49496 19.2518 4.96996 17.5018 4.66663C17.471 4.66706 17.4416 4.67964 17.4201 4.70163C17.2101 5.08663 16.9651 5.58829 16.8018 5.97329C14.9456 5.69347 13.0579 5.69347 11.2018 5.97329C11.0384 5.57663 10.7934 5.08663 10.5718 4.70163C10.5601 4.67829 10.5251 4.66663 10.4901 4.66663C8.7401 4.96996 7.07176 5.49496 5.50843 6.21829C5.49676 6.21829 5.4851 6.22996 5.47343 6.24163C2.3001 10.99 1.4251 15.61 1.85676 20.1833C1.85676 20.2066 1.86843 20.23 1.89176 20.2416C3.99176 21.7816 6.0101 22.715 8.0051 23.3333C8.0401 23.345 8.0751 23.3333 8.08676 23.31C8.55343 22.6683 8.97343 21.9916 9.3351 21.28C9.35843 21.2333 9.3351 21.1866 9.28843 21.175C8.62343 20.9183 7.99343 20.615 7.3751 20.265C7.32843 20.2416 7.32843 20.1716 7.36343 20.1366C7.49176 20.0433 7.6201 19.9383 7.74843 19.845C7.77176 19.8216 7.80677 19.8216 7.8301 19.8333C11.8434 21.665 16.1718 21.665 20.1384 19.8333C20.1618 19.8216 20.1968 19.8216 20.2201 19.845C20.3484 19.95 20.4768 20.0433 20.6051 20.1483C20.6518 20.1833 20.6518 20.2533 20.5934 20.2766C19.9868 20.6383 19.3451 20.93 18.6801 21.1866C18.6334 21.1983 18.6218 21.2566 18.6334 21.2916C19.0068 22.0033 19.4268 22.68 19.8818 23.3216C19.9168 23.3333 19.9518 23.345 19.9868 23.3333C21.9934 22.715 24.0118 21.7816 26.1118 20.2416C26.1351 20.23 26.1468 20.2066 26.1468 20.1833C26.6601 14.8983 25.2951 10.3133 22.5301 6.24163C22.5184 6.22996 22.5068 6.21829 22.4834 6.21829ZM9.94177 17.395C8.7401 17.395 7.73676 16.2866 7.73676 14.9216C7.73676 13.5566 8.71677 12.4483 9.94177 12.4483C11.1784 12.4483 12.1584 13.5683 12.1468 14.9216C12.1468 16.2866 11.1668 17.395 9.94177 17.395ZM18.0734 17.395C16.8718 17.395 15.8684 16.2866 15.8684 14.9216C15.8684 13.5566 16.8484 12.4483 18.0734 12.4483C19.3101 12.4483 20.2901 13.5683 20.2784 14.9216C20.2784 16.2866 19.3101 17.395 18.0734 17.395Z" fill="white"/>
</svg>
