<svg width="24" height="24" viewBox="0 0 24 24" fill="none" xmlns="http://www.w3.org/2000/svg">
<path d="M6.433 2.4C7.835 2.25 9.636 2.25 11.953 2.25H12.047C14.364 2.25 16.165 2.25 17.567 2.4C18.985 2.553 20.108 2.87 21.004 3.586C21.924 4.322 22.354 5.279 22.557 6.486C22.75 7.638 22.75 9.104 22.75 10.932V11.115C22.75 12.897 22.75 14.13 22.55 15.049C22.4561 15.5213 22.271 15.9707 22.005 16.372C21.741 16.764 21.405 17.094 21.005 17.414C20.108 18.131 18.985 18.447 17.567 18.599C16.165 18.75 14.364 18.75 12.047 18.75H12C10.944 18.75 10.137 19.107 9.293 19.656C8.951 19.877 8.618 20.12 8.257 20.385L7.953 20.605C7.478 20.95 6.959 21.315 6.373 21.651C6.25893 21.7164 6.12967 21.7506 5.99819 21.7503C5.8667 21.75 5.73761 21.7151 5.62386 21.6492C5.51011 21.5832 5.41569 21.4886 5.35007 21.3746C5.28445 21.2607 5.24994 21.1315 5.25 21V18.415C4.371 18.225 3.627 17.919 2.996 17.415C2.596 17.094 2.259 16.765 1.996 16.372C1.72963 15.9707 1.54416 15.5213 1.45 15.049C1.25 14.13 1.25 12.897 1.25 11.115V10.932C1.25 9.104 1.25 7.638 1.443 6.487C1.646 5.279 2.076 4.322 2.996 3.586C3.892 2.869 5.015 2.552 6.433 2.4ZM8.75 10.501C8.75 10.3021 8.67098 10.1113 8.53033 9.97067C8.38968 9.83002 8.19891 9.751 8 9.751C7.80109 9.751 7.61032 9.83002 7.46967 9.97067C7.32902 10.1113 7.25 10.3021 7.25 10.501V11.001C7.25 11.1999 7.32902 11.3907 7.46967 11.5313C7.61032 11.672 7.80109 11.751 8 11.751C8.19891 11.751 8.38968 11.672 8.53033 11.5313C8.67098 11.3907 8.75 11.1999 8.75 11.001V10.501ZM12.75 10.501C12.75 10.3021 12.671 10.1113 12.5303 9.97067C12.3897 9.83002 12.1989 9.751 12 9.751C11.8011 9.751 11.6103 9.83002 11.4697 9.97067C11.329 10.1113 11.25 10.3021 11.25 10.501V11.001C11.25 11.1999 11.329 11.3907 11.4697 11.5313C11.6103 11.672 11.8011 11.751 12 11.751C12.1989 11.751 12.3897 11.672 12.5303 11.5313C12.671 11.3907 12.75 11.1999 12.75 11.001V10.501ZM16.75 10.501C16.75 10.3021 16.671 10.1113 16.5303 9.97067C16.3897 9.83002 16.1989 9.751 16 9.751C15.8011 9.751 15.6103 9.83002 15.4697 9.97067C15.329 10.1113 15.25 10.3021 15.25 10.501V11.001C15.25 11.1999 15.329 11.3907 15.4697 11.5313C15.6103 11.672 15.8011 11.751 16 11.751C16.1989 11.751 16.3897 11.672 16.5303 11.5313C16.671 11.3907 16.75 11.1999 16.75 11.001V10.501Z" fill="white"/>
</svg>
