<svg width="28" height="28" viewBox="0 0 28 28" fill="none" xmlns="http://www.w3.org/2000/svg">
<path d="M24.1609 4.26363C24.1609 4.26363 26.4271 3.37988 26.2375 5.52597C26.1751 6.40972 25.6087 9.50313 25.1677 12.8485L23.6569 22.7594C23.6569 22.7594 23.5309 24.2113 22.3974 24.4639C21.2646 24.7159 19.5648 23.5801 19.2498 23.3275C18.9978 23.138 14.5283 20.2971 12.9544 18.9088C12.5134 18.5296 12.0094 17.7725 13.0174 16.8887L19.6278 10.5759C20.3832 9.81755 21.1386 8.05005 17.9909 10.1967L9.17678 16.1934C9.17678 16.1934 8.16936 16.8251 6.28111 16.257L2.18845 14.9941C2.18845 14.9941 0.677611 14.0473 3.25886 13.1006C9.55478 10.1337 17.2985 7.10388 24.1603 4.26305" fill="white"/>
</svg>
